<svg id="Capa_1" enable-background="new 0 0 512 512" height="512" viewBox="0 0 512 512" width="512" xmlns="http://www.w3.org/2000/svg"><g><path d="m321 340.475h30v-29.736h30v29.736h30v-29.736h27v-99.949c0-28.362-23.075-51.438-51.438-51.438h-41.125c-28.363 0-51.438 23.075-51.438 51.438v99.948h27v29.737zm3-89.737h84v30h-84zm21.438-61.385h41.125c11.821 0 21.438 9.617 21.438 21.438v9.948h-84v-9.948c-.001-11.821 9.616-21.438 21.437-21.438z"/><path d="m11 0v512h490v-512zm60 482h-30v-452h30zm160 0h-130v-452h130zm240 0h-210v-452h210z"/><path d="m151 310.717h30v50h-30z"/><path d="m151 390.717h30v50h-30z"/><path d="m349.945 390.717h30v50h-30z"/><path d="m151 151.284h30v50h-30z"/><path d="m151 231.284h30v50h-30z"/><path d="m151 71.284h30v50h-30z"/><path d="m351 71.284h30v50h-30z"/></g></svg>