<?xml version="1.0" encoding="iso-8859-1"?>
<!-- Generator: Adobe Illustrator 19.0.0, SVG Export Plug-In . SVG Version: 6.00 Build 0)  -->
<svg version="1.1" id="Capa_1" xmlns="http://www.w3.org/2000/svg" xmlns:xlink="http://www.w3.org/1999/xlink" x="0px" y="0px"
	 viewBox="0 0 512.001 512.001" style="enable-background:new 0 0 512.001 512.001;" xml:space="preserve">
<path style="fill:#1785B8;" d="M484.483,352.262H24.361c-9.309,0-16.856-7.547-16.856-16.856V134.811
	c0-9.309,7.547-16.856,16.856-16.856h443.19c8.016,0,14.913,5.667,16.466,13.531l20.158,102.011
	c0.212,1.072,0.318,2.161,0.318,3.254v95.5C504.494,343.302,495.535,352.262,484.483,352.262z"/>
<path style="fill:#0A7693;" d="M504.176,233.497l-20.158-102.011c-1.554-7.864-8.451-13.531-16.467-13.531h-23.397l13.819,69.932
	c0.101,0.512,0.152,1.032,0.152,1.554v105.127c0,6.208-5.033,11.241-11.241,11.241H7.506v29.596c0,9.309,7.547,16.856,16.856,16.856
	h460.122c11.052,0,20.011-8.959,20.011-20.011v-95.5C504.494,235.659,504.388,234.569,504.176,233.497z"/>
<g>
	<circle style="fill:#35495D;" cx="96.85" cy="352.259" r="41.78"/>
	<circle style="fill:#35495D;" cx="415.15" cy="352.259" r="41.78"/>
</g>
<g>
	<path style="fill:#2A3A4C;" d="M410.498,393.777c1.528,0.17,3.078,0.264,4.651,0.264c23.074,0,41.78-18.706,41.78-41.78
		c0-23.075-18.706-41.78-41.78-41.78c-1.577,0-3.13,0.095-4.662,0.265L410.498,393.777z"/>
	<path style="fill:#2A3A4C;" d="M92.2,393.777c1.528,0.17,3.078,0.264,4.651,0.264c23.074,0,41.78-18.706,41.78-41.78
		c0-23.075-18.706-41.78-41.78-41.78c-1.577,0-3.13,0.095-4.662,0.265L92.2,393.777z"/>
</g>
<circle style="fill:#CADDEA;" cx="415.15" cy="352.259" r="18.11"/>
<g>
	<path style="fill:#B5E7FE;" d="M504.494,236.751c0-1.092-0.107-2.182-0.318-3.254l-16.818-85.108H379.674
		c-3.182,0-5.762,2.58-5.762,5.762v80.955c0,5.238,2.47,10.176,6.691,13.277c11.944,8.774,43.708,23.497,123.891,26.287
		L504.494,236.751L504.494,236.751z"/>
	<path style="fill:#B5E7FE;" d="M170.837,241.781H45.197c-2.466,0-4.466-1.999-4.466-4.466v-84.46c0-2.466,1.999-4.466,4.466-4.466
		h125.64c2.466,0,4.466,1.999,4.466,4.466v84.46C175.303,239.781,173.303,241.781,170.837,241.781z"/>
	<path style="fill:#B5E7FE;" d="M335.598,241.781h-125.64c-2.466,0-4.466-1.999-4.466-4.466v-84.46c0-2.466,1.999-4.466,4.466-4.466
		h125.64c2.466,0,4.466,1.999,4.466,4.466v84.46C340.064,239.781,338.064,241.781,335.598,241.781z"/>
</g>
<path style="fill:#9AD8ED;" d="M498.879,206.691l-11.521-58.302h-37.189l7.805,39.499c0.101,0.512,0.152,1.032,0.152,1.554v81.824
	c13.299,1.589,28.649,2.789,46.368,3.405v-37.919c0-0.546-0.027-1.092-0.08-1.635c-0.053-0.543-0.133-1.083-0.239-1.619
	L498.879,206.691z"/>
<circle style="fill:#CADDEA;" cx="96.85" cy="352.259" r="18.11"/>
<path d="M373.912,293.531h13.187c4.146,0,7.506-3.36,7.506-7.506c0-4.146-3.36-7.506-7.506-7.506h-13.187
	c-4.146,0-7.506,3.36-7.506,7.506C366.407,290.172,369.767,293.531,373.912,293.531z"/>
<path d="M511.977,235.803c-0.05-1.264-0.193-2.526-0.438-3.761l-16.817-85.108c-0.001-0.003-0.002-0.006-0.002-0.009l-3.338-16.893
	c-2.242-11.346-12.264-19.582-23.83-19.582H24.361C10.928,110.449,0,121.378,0,134.812v200.595
	c0,13.433,10.928,24.361,24.361,24.361h23.775c3.625,23.627,24.09,41.781,48.715,41.781s45.09-18.153,48.715-41.781h19.33
	c4.145,0,7.506-3.36,7.506-7.506c0-4.146-3.36-7.506-7.506-7.506h-19.331c-3.625-23.626-24.09-41.78-48.715-41.78
	s-45.09,18.153-48.715,41.78H24.361c-5.156,0-9.35-4.195-9.35-9.35V134.812c0-5.156,4.194-9.351,9.35-9.351h443.19
	c4.418,0,8.246,3.146,9.104,7.481l1.569,7.942h-98.55c-7.316,0-13.268,5.952-13.268,13.268v80.955
	c0,7.616,3.646,14.841,9.753,19.326c14.701,10.8,47.57,24.146,120.829,27.45v50.369c0,6.896-5.61,12.506-12.506,12.506h-20.619
	c-3.626-23.626-24.09-41.78-48.716-41.78c-24.625,0-45.089,18.153-48.715,41.78H199.821c-4.145,0-7.506,3.36-7.506,7.506
	c0,4.146,3.36,7.506,7.506,7.506h166.613c3.625,23.627,24.09,41.781,48.715,41.781c24.626,0,45.09-18.153,48.716-41.781h20.619
	c15.173,0,27.517-12.344,27.517-27.517l0,0v-95.499v-0.001C512,236.435,511.989,236.118,511.977,235.803z M96.851,317.988
	c18.899,0,34.274,15.375,34.274,34.274s-15.375,34.275-34.274,34.275s-34.274-15.376-34.274-34.275S77.952,317.988,96.851,317.988z
	 M415.149,386.536c-18.899,0-34.274-15.376-34.274-34.275s15.375-34.274,34.274-34.274s34.275,15.375,34.275,34.274
	C449.423,371.16,434.048,386.536,415.149,386.536z M496.989,266.855c-72.705-3.352-101.283-16.69-111.942-24.521
	c-2.272-1.669-3.629-4.371-3.629-7.228v-79.211h99.772l15.622,79.061c0.028,0.141,0.042,0.285,0.063,0.428
	c0.062,0.417,0.102,0.838,0.107,1.259c0,0.037,0.005,0.073,0.005,0.109v30.103H496.989z"/>
<path d="M170.837,140.883H45.197c-6.601,0-11.971,5.37-11.971,11.971v84.46c0,6.601,5.37,11.971,11.971,11.971h125.64
	c6.601,0,11.971-5.37,11.971-11.971v-84.46C182.808,146.254,177.438,140.883,170.837,140.883z M100.511,234.275H48.237v-78.38
	h52.274V234.275z M167.797,234.275h-52.274v-78.38h52.274V234.275z"/>
<path d="M209.957,249.286h125.641c0.007,0-62.827,0.001-62.821,0.001s62.814-0.001,62.821-0.001l0,0
	c6.601,0,11.971-5.37,11.971-11.971v-84.46c0-6.601-5.37-11.971-11.971-11.971H209.957c-6.601,0-11.971,5.37-11.971,11.971v84.46
	C197.986,243.916,203.356,249.286,209.957,249.286z M212.997,155.895h52.274v15.008c0,4.146,3.36,7.506,7.506,7.506
	c4.146,0,7.506-3.36,7.506-7.506v-15.008h52.275v78.38h-52.275v-28.447c0-4.146-3.36-7.506-7.506-7.506
	c-4.146,0-7.506,3.36-7.506,7.506v28.447h-52.274V155.895z"/>
<g>
	
		<circle style="fill:none;stroke:#000000;stroke-width:15;stroke-linecap:round;stroke-linejoin:round;stroke-miterlimit:10;" cx="415.15" cy="352.259" r="18.11"/>
	
		<circle style="fill:none;stroke:#000000;stroke-width:15;stroke-linecap:round;stroke-linejoin:round;stroke-miterlimit:10;" cx="96.85" cy="352.259" r="18.11"/>
</g>
<g>
</g>
<g>
</g>
<g>
</g>
<g>
</g>
<g>
</g>
<g>
</g>
<g>
</g>
<g>
</g>
<g>
</g>
<g>
</g>
<g>
</g>
<g>
</g>
<g>
</g>
<g>
</g>
<g>
</g>
</svg>
