<svg id="Layer_1" enable-background="new 0 0 48 48" viewBox="0 0 48 48" xmlns="http://www.w3.org/2000/svg"><g><path d="m6.3 8.3h25.5c.6 0 1-.4 1-1s-.4-1-1-1h-25.5c-.6 0-1 .4-1 1s.4 1 1 1z"/><path d="m6.3 15h25.5c.6 0 1-.4 1-1s-.4-1-1-1h-25.5c-.6 0-1 .4-1 1s.4 1 1 1z"/><path d="m47 11-3.5-3c-1.2-1-2.9-.9-4 .3l-1.5 1.8v-6.1c0-2.2-1.8-4-4-4h-30c-2.2 0-4 1.8-4 4v40c0 2.2 1.8 4 4 4h30c2.2 0 4-1.8 4-4v-18.2c2.3-2.6 7-8.1 9.3-10.8 1-1.2.9-2.9-.3-4zm-20.2 24.8-4.8-4.1 15.9-18.5 4.7 4.1zm-5.6-2.2 3.8 3.3-5.2 2.1zm14.8 10.4c0 1.1-.9 2-2 2h-30c-1.1 0-2-.9-2-2v-40c0-1.1.9-2 2-2h30c1.1 0 2 .9 2 2v8.4l-6.3 7.3h-23.4c-.6 0-1 .4-1 1s.4 1 1 1h21.7l-4 4.7h-17.7c-.6 0-1 .4-1 1s.4 1 1 1h16l-2.4 2.8c-.1.1-.2.2-.2.4l-.4 1.4h-13c-.6 0-1 .4-1 1s.4 1 1 1h12.5l-1.2 4.7h-11.3c-.6 0-1 .4-1 1s.4 1 1 1h12c.1 0 .2.1.5-.1.9-.4-3.1 1.3 8.5-3.5.1-.1.3-.1.4-.3l8.4-9.7v15.9zm9.8-30.3-1.8 2.1-4.7-4.1 1.7-2.1c.3-.3.8-.4 1.2-.1l3.5 3c.3.3.4.9.1 1.2z"/></g></svg>