<?xml version="1.0" encoding="UTF-8"?>
<svg xmlns="http://www.w3.org/2000/svg" id="Layer_3" data-name="Layer 3" viewBox="0 0 64 64" width="512" height="512"><path d="M10,25h6a1,1,0,0,0,1-1V18a1,1,0,0,0-1-1H10a1,1,0,0,0-1,1v6A1,1,0,0,0,10,25Zm1-6h4v4H11Z"/><path d="M20,25h6V23H21V19h5V17H20a1,1,0,0,0-1,1v6A1,1,0,0,0,20,25Z"/><path d="M10,35h6a1,1,0,0,0,1-1V28a1,1,0,0,0-1-1H10a1,1,0,0,0-1,1v6A1,1,0,0,0,10,35Zm1-6h4v4H11Z"/><path d="M10,45h6a1,1,0,0,0,1-1V38a1,1,0,0,0-1-1H10a1,1,0,0,0-1,1v6A1,1,0,0,0,10,45Zm1-6h4v4H11Z"/><path d="M32,35H28a1,1,0,0,0-1,1v4a1,1,0,0,0,1,1h4a1,1,0,0,0,1-1V36A1,1,0,0,0,32,35Zm-1,4H29V37h2Z"/><path d="M32,43H28a1,1,0,0,0-1,1v4a1,1,0,0,0,1,1h4a1,1,0,0,0,1-1V44A1,1,0,0,0,32,43Zm-1,4H29V45h2Z"/><path d="M40,43H36a1,1,0,0,0-1,1v4a1,1,0,0,0,1,1h4a1,1,0,0,0,1-1V44A1,1,0,0,0,40,43Zm-1,4H37V45h2Z"/><path d="M36,41h4V39H37V36H35v4A1,1,0,0,0,36,41Z"/><path d="M62,14H60.187a15.86,15.86,0,0,0-.891-2.168l1.411-1.411a1,1,0,0,0,0-1.414L54.993,3.293a1.029,1.029,0,0,0-1.414,0L52.168,4.7A15.86,15.86,0,0,0,50,3.813V2a1,1,0,0,0-1-1H41a1,1,0,0,0-1,1V3.813a15.86,15.86,0,0,0-2.168.891L36.421,3.293a1,1,0,0,0-1.414,0L29.3,9H4a1,1,0,0,0-1,1v4a1,1,0,0,0,1,1H5V57H2a1,1,0,0,0-1,1v4a1,1,0,0,0,1,1H48a1,1,0,0,0,1-1V58a1,1,0,0,0-1-1H45V37h4a1,1,0,0,0,1-1V34.187a15.86,15.86,0,0,0,2.168-.891l1.411,1.411a1,1,0,0,0,1.414,0l5.714-5.714a1,1,0,0,0,0-1.414L59.3,26.168A15.86,15.86,0,0,0,60.187,24H62a1,1,0,0,0,1-1V15A1,1,0,0,0,62,14ZM7,15H26V13H5V11H29.872l.832.832A15.86,15.86,0,0,0,29.813,14H28a1,1,0,0,0-1,1v8a1,1,0,0,0,1,1h1.813a15.86,15.86,0,0,0,.891,2.168l-1.411,1.411a1,1,0,0,0,0,1.414L31.3,31H27V28a1,1,0,0,0-1-1H20a1,1,0,0,0-1,1v6a1,1,0,0,0,1,1h3v2H20a1,1,0,0,0-1,1v6a1,1,0,0,0,1,1h3v4a4,4,0,0,0-4,4v4H17V53a4,4,0,0,0-8,0v4H7ZM21,57V53a2,2,0,0,1,2-2v6Zm2-14H21V39h2Zm1-12a1,1,0,0,0-1,1v1H21V29h4v2ZM15,57H11V53a2,2,0,0,1,4,0Zm32,4H3V59H47ZM35,57H33V54a1,1,0,0,1,2,0Zm8,0H37V54a3,3,0,0,0-6,0v3H25V33h8.3l1.707,1.707a1.029,1.029,0,0,0,1.414,0L37.832,33.3A15.86,15.86,0,0,0,40,34.187V36a1,1,0,0,0,1,1h2ZM61,22H59.444a1,1,0,0,0-.964.734A13.924,13.924,0,0,1,57.2,25.861a1,1,0,0,0,.164,1.2l1.227,1.226-4.3,4.3L53.06,31.359a1,1,0,0,0-1.2-.164,13.924,13.924,0,0,1-3.127,1.285,1,1,0,0,0-.734.964V35H42V33.444a1,1,0,0,0-.734-.964A13.924,13.924,0,0,1,38.139,31.2a1,1,0,0,0-1.2.164l-1.226,1.227-4.3-4.3,1.227-1.226a1,1,0,0,0,.164-1.2,13.924,13.924,0,0,1-1.285-3.127A1,1,0,0,0,30.556,22H29V16h1.556a1,1,0,0,0,.964-.734,13.924,13.924,0,0,1,1.285-3.127,1,1,0,0,0-.164-1.2L31.414,9.714l4.3-4.3L36.94,6.641a1,1,0,0,0,1.2.164A13.924,13.924,0,0,1,41.266,5.52,1,1,0,0,0,42,4.556V3h6V4.556a1,1,0,0,0,.734.964,13.924,13.924,0,0,1,3.127,1.285,1,1,0,0,0,1.2-.164l1.226-1.227,4.3,4.3L57.359,10.94a1,1,0,0,0-.164,1.2,13.924,13.924,0,0,1,1.285,3.127,1,1,0,0,0,.964.734H61Z"/><path d="M45,7A12,12,0,1,0,57,19,12.013,12.013,0,0,0,45,7ZM44,28.949v-5.3a1,1,0,0,0-.666-.943A4.989,4.989,0,0,1,42,14.007V18a1,1,0,0,0,.293.707l2,2a1,1,0,0,0,1.414,0l2-2A1,1,0,0,0,48,18V14.007a4.989,4.989,0,0,1-1.334,8.7,1,1,0,0,0-.666.943v5.3a9.829,9.829,0,0,1-2,0Zm4-.41v-4.22a6.992,6.992,0,0,0-.666-12.913A1,1,0,0,0,46,12.349v5.237l-1,1-1-1V12.349a1,1,0,0,0-1.334-.943A6.992,6.992,0,0,0,42,24.319v4.22a10,10,0,1,1,6,0Z"/></svg>
