<?xml version="1.0"?>
<svg xmlns="http://www.w3.org/2000/svg" viewBox="0 0 64 64" width="512" height="512"><g id="clipboard-support-file-gear-help"><path d="M51,30H41a1,1,0,0,0,0,2H51a1,1,0,0,0,0-2Z"/><path d="M51,34H41a1,1,0,0,0,0,2H51a1,1,0,0,0,0-2Z"/><path d="M41,20a1,1,0,0,0,0,2H51a1,1,0,0,0,0-2Z"/><path d="M51,24H41a1,1,0,0,0,0,2H51a1,1,0,0,0,0-2Z"/><path d="M59,8H49V7a1,1,0,0,0-1-1H43.66A6,6,0,0,0,32.34,6H28a1,1,0,0,0-1,1V8H17a3.009,3.009,0,0,0-3,3v9a1,1,0,0,0-1,1v3.75l-.42.18L9.93,22.27a1.047,1.047,0,0,0-1.42,0L4.27,26.51a1.008,1.008,0,0,0,0,1.42l2.66,2.65L6.75,31H3a1,1,0,0,0-1,1v6a1,1,0,0,0,1,1H6.75l.18.42L4.27,42.07a1.008,1.008,0,0,0,0,1.42l4.24,4.24a1.014,1.014,0,0,0,1.42,0l2.65-2.66.42.18V49a1,1,0,0,0,1,1v9a3.009,3.009,0,0,0,3,3H59a3.009,3.009,0,0,0,3-3V11A3.009,3.009,0,0,0,59,8ZM29,8h4.1a1,1,0,0,0,.98-.8,4,4,0,0,1,7.84,0,1,1,0,0,0,.98.8H47v6H29Zm-1,8H48a1,1,0,0,0,1-1V14h7V48H49a1,1,0,0,0-1,1v7H20V50a1,1,0,0,0,1-1V45.25l.42-.18,2.65,2.66a1.047,1.047,0,0,0,1.42,0l4.24-4.24a1.008,1.008,0,0,0,0-1.42l-2.66-2.65.18-.42H31a1,1,0,0,0,1-1V32a1,1,0,0,0-1-1H27.25l-.18-.42,2.66-2.65a1.008,1.008,0,0,0,0-1.42l-4.24-4.24a1.014,1.014,0,0,0-1.42,0l-2.65,2.66L21,24.75V21a1,1,0,0,0-1-1V14h7v1A1,1,0,0,0,28,16ZM54.59,50,50,54.59V50ZM16,11a1,1,0,0,1,1-1H27v2H19a1,1,0,0,0-1,1v7H16ZM14.31,43.59a7.906,7.906,0,0,1-1.45-.61,1.016,1.016,0,0,0-1.19.17L9.22,45.61,6.39,42.78l2.46-2.45a1.016,1.016,0,0,0,.17-1.19,8.214,8.214,0,0,1-.61-1.45A1,1,0,0,0,7.46,37H4V33H7.46a1,1,0,0,0,.95-.69,8.214,8.214,0,0,1,.61-1.45,1.016,1.016,0,0,0-.17-1.19L6.39,27.22l2.83-2.83,2.45,2.46a1.016,1.016,0,0,0,1.19.17,7.906,7.906,0,0,1,1.45-.61,1,1,0,0,0,.69-.95V22h4v3.46a1,1,0,0,0,.69.95,7.906,7.906,0,0,1,1.45.61,1.016,1.016,0,0,0,1.19-.17l2.45-2.46,2.83,2.83-2.46,2.45a1.016,1.016,0,0,0-.17,1.19,8.214,8.214,0,0,1,.61,1.45,1,1,0,0,0,.95.69H30v4H26.54a1,1,0,0,0-.95.69,8.214,8.214,0,0,1-.61,1.45,1.016,1.016,0,0,0,.17,1.19l2.46,2.45-2.83,2.83-2.45-2.46a1.016,1.016,0,0,0-1.19-.17,7.906,7.906,0,0,1-1.45.61,1,1,0,0,0-.69.95V48H15V44.54A1,1,0,0,0,14.31,43.59ZM60,59a1,1,0,0,1-1,1H17a1,1,0,0,1-1-1V50h2v7a1,1,0,0,0,1,1H49a1.033,1.033,0,0,0,.71-.29l8-8A1.033,1.033,0,0,0,58,49V13a1,1,0,0,0-1-1H49V10H59a1,1,0,0,1,1,1Z"/><path d="M24,35a7,7,0,1,0-7,7A7.008,7.008,0,0,0,24,35ZM12,35a5,5,0,1,1,5,5A5.006,5.006,0,0,1,12,35Z"/><path d="M20.242,32.757a1,1,0,0,0-1.414,0L16,35.586l-.707-.707a1,1,0,1,0-1.414,1.414l1.414,1.414a1,1,0,0,0,1.414,0l3.535-3.536A1,1,0,0,0,20.242,32.757Z"/><path d="M36,22h1a1,1,0,0,0,0-2H36a1,1,0,0,0,0,2Z"/><path d="M36,26h1a1,1,0,0,0,0-2H36a1,1,0,0,0,0,2Z"/><path d="M36,32h1a1,1,0,0,0,0-2H36a1,1,0,0,0,0,2Z"/><path d="M36,36h1a1,1,0,0,0,0-2H36a1,1,0,0,0,0,2Z"/><path d="M51,40H41a1,1,0,0,0,0,2H51a1,1,0,0,0,0-2Z"/><path d="M51,44H41a1,1,0,0,0,0,2H51a1,1,0,0,0,0-2Z"/><path d="M45,50H25a1,1,0,0,0,0,2H45a1,1,0,0,0,0-2Z"/><path d="M36,42h1a1,1,0,0,0,0-2H36a1,1,0,0,0,0,2Z"/><path d="M36,46h1a1,1,0,0,0,0-2H36a1,1,0,0,0,0,2Z"/></g></svg>
