<svg id="Layer_5" enable-background="new 0 0 64 64" height="512" viewBox="0 0 64 64" width="512" xmlns="http://www.w3.org/2000/svg"><g><g><g><path d="m56 12h6v6h-6z" fill="#aab2bd"/></g><g><path d="m56 8h6v4h-6z" fill="#aab2bd"/></g><g><path d="m2 8h26v4h-26z" fill="#aab2bd"/></g><g><path d="m2 12h26v6h-26z" fill="#aab2bd"/></g><g><path d="m28 20h28v-2h6l-3 6h-54l-3-6h26z" fill="#ccd1d9"/></g><g><path d="m5 24h54v38h-54z" fill="#e6e9ed"/></g><g><path d="m29 30h24v32h-24z" fill="#aab2bd"/></g><g><path d="m33 34h16v28h-16z" fill="#69d6f4"/></g><g><path d="m20 60v2h-.82-17.18v-2c0-1.1.9-2 2-2h14c1.1 0 2 .9 2 2z" fill="#fc6e51"/></g><g><path d="m20 34-2 4h-14l-2-4z" fill="#fc6e51"/></g><g><path d="m20 30v4h-18v-4h3z" fill="#fc6e51"/></g><g><path d="m18 38v20h-14v-20z" fill="#ff826e"/></g><g><path d="m8 46h6v8h-6z" fill="#ffeaa7"/></g><g><path d="m38.5 11-10.5 9v-2-6-4-6z" fill="#dfb28b"/></g><g><path d="m56 18v2l-10.5-9 10.5-9v6 4z" fill="#dfb28b"/></g><g><path d="m56 20h-28l10.5-9 3.5 3 3.5-3z" fill="#d3a06c"/></g><g><path d="m56 2-10.5 9-3.5 3-3.5-3-10.5-9z" fill="#cf9e76"/></g></g><g><path d="m15 55v-10h-8v10zm-6-8h4v6h-4z"/><path d="m7 41h8v2h-8z"/><path d="m57 7v-6h-30v6h-26v11.236l3 6v4.764h-3v5.236l2 4v18.948c-1.161.414-2 1.514-2 2.816v3h18.178 1.822 39v-38.764l3-6v-11.236zm4 2v2h-4v-2zm-4 8v-4h4v4zm-9.964-6 7.964-6.826v13.652zm-5.036 1.683-11.297-9.683h22.594zm-5.036-1.683-7.964 6.826v-13.652zm-9.964 6h-24v-4h24zm11.5-4.683 3.5 3 3.5-3 7.797 6.683h-22.594zm-11.5-3.317v2h-24v-2zm-8 22v2h-16v-2zm-2 8v18h-12v-18zm.382-2h-12.764l-1-2h14.764zm1.618 24h-16v-1c0-.552.449-1 1-1h14c.551 0 1 .448 1 1zm33 0h-2v-28h-18v28h-2v-30h22zm-12-12v12h-6v-26h6v12h-2v2zm2 0h2v-2h-2v-12h6v26h-6zm12 12v-32h-26v32h-7v-1c0-1.302-.839-2.402-2-2.816v-18.948l2-4v-5.236h-15v-4h52v36zm4.382-38h-52.764l-2-4h23.382v2h30v-2h3.382z"/></g></g></svg>