<svg enable-background="new 0 0 512 512" height="512" viewBox="0 0 512 512" width="512" xmlns="http://www.w3.org/2000/svg"><g id="_x35_54_x2C__Find_x2C__Glass_x2C__Magnifier_x2C__Search_x2C__Web_x2C_"><g><path d="m176.147 46.075c-71.682 0-130 58.318-130 130s58.318 129.999 130 129.999 129.999-58.317 129.999-129.999-58.317-130-129.999-130zm0 239.999c-60.654 0-110-49.345-110-109.999s49.346-110 110-110 109.999 49.346 109.999 110-49.345 109.999-109.999 109.999z"/><path d="m502.926 439.358-140.031-140.031c-3.906-3.904-10.236-3.904-14.142 0l-2.369 2.368-29.853-29.854c18.676-27.29 29.617-60.273 29.617-95.767 0-93.738-76.262-170-169.999-170-93.738 0-170 76.262-170 170s76.262 169.999 170 169.999c35.494 0 68.477-10.941 95.769-29.618l29.854 29.854-2.516 2.516c-3.904 3.905-3.904 10.236 0 14.143l140.031 140.029c3.906 3.905 10.236 3.904 14.142 0l49.498-49.496c3.901-3.903 3.903-10.236-.001-14.143zm-476.779-263.283c0-82.71 67.29-150 150-150s149.999 67.29 149.999 150-67.289 149.999-149.999 149.999-150-67.289-150-149.999zm278.089 111.759 27.77 27.768-16.33 16.33-27.77-27.769c5.805-5.068 11.262-10.524 16.33-16.329zm142.119 193.95-125.888-125.887 35.355-35.356 125.889 125.889z"/><path d="m176.147 246.075c-38.598 0-70-31.402-70-70 0-5.523-4.477-10-10-10s-10 4.477-10 10c0 49.626 40.374 89.999 90 89.999 5.523 0 10-4.477 10-9.999 0-5.523-4.477-10-10-10z"/></g></g></svg>