<svg id="Layer_1" enable-background="new 0 0 512 512" viewBox="0 0 512 512" xmlns="http://www.w3.org/2000/svg"><path d="m256 197.9c33 0 59.8-26.8 59.8-59.8-3.3-79.3-116.3-79.3-119.6 0 0 33 26.8 59.8 59.8 59.8zm0-109.2c27.2 0 49.4 22.2 49.4 49.4-2.7 65.5-96.1 65.5-98.8 0 0-27.2 22.2-49.4 49.4-49.4zm-106.2 76.7h14.6c1.9 6.3 4.4 12.4 7.5 18.2l-10.3 10.3c-4.3 4.3-4.3 11.3 0 15.6l23 23c4.1 4.3 11.5 4.3 15.6 0 0 0 10.3-10.3 10.3-10.3 5.8 3.1 11.9 5.7 18.2 7.5v14.6c0 6.1 4.9 11 11 11h32.6c6.1 0 11-4.9 11-11v-14.6c6.3-1.9 12.3-4.4 18.2-7.5l10.4 10.3c4.1 4.3 11.5 4.3 15.6 0 0 0 23-23 23-23 4.3-4.1 4.3-11.5 0-15.6 0 0-10.3-10.3-10.3-10.3 3.1-5.8 5.7-11.9 7.5-18.2h14.6c6.1 0 11-4.9 11-11v-32.6c0-6.1-4.9-11-11-11h-14.6c-1.9-6.3-4.4-12.4-7.5-18.2l10.3-10.3c4.3-4.1 4.3-11.5 0-15.6 0 0-23-23-23-23-4.3-4.3-11.3-4.3-15.6 0l-10.4 10.3c-5.8-3.1-11.9-5.7-18.2-7.5v-14.6c0-6.1-4.9-11-11-11h-32.6c-6.1 0-11 4.9-11 11v14.6c-6.3 1.9-12.4 4.4-18.2 7.5l-10.4-10.4c-4.3-4.3-11.3-4.3-15.6 0l-23 23c-4.3 4.3-4.3 11.3 0 15.6l10.3 10.3c-3.1 5.8-5.6 11.9-7.5 18.2h-14.6c-6.1 0-11 4.9-11 11v32.6c0 6.2 5 11.1 11.1 11.1zm-.7-43.6c0-.4.3-.7.7-.7h18.6c2.4 0 4.4-1.6 5-3.9 2-8 5.2-15.7 9.5-22.8 1.2-2 .9-4.6-.8-6.3l-13.2-13.1c-.3-.3-.3-.7 0-.9l23-23c.3-.3.7-.2.9 0l13.2 13.1c1.7 1.7 4.3 2 6.3.8 7.1-4.3 14.8-7.4 22.8-9.5 2.3-.6 3.9-2.7 3.9-5v-18.6c0-.4.3-.7.7-.7h32.6c.4 0 .7.3.7.7v18.6c0 2.4 1.6 4.4 3.9 5 8 2 15.7 5.2 22.8 9.5 2 1.2 4.7.9 6.3-.8l13.2-13.2c.3-.3.7-.2.9 0l23 23v.9l-13.1 13.2c-1.7 1.7-2 4.3-.8 6.3 4.3 7.1 7.5 14.8 9.5 22.8.6 2.3 2.6 3.9 5 3.9h18.6c.4 0 .7.3.7.7v32.6c0 .4-.3.7-.7.7h-18.6c-2.4 0-4.5 1.6-5 3.9-2 8-5.2 15.7-9.5 22.8-1.2 2-.9 4.6.8 6.3l13.1 13.1v.9l-23 23 3.7 3.7c-3.3-2-14.8-13.9-17.8-16.8-1.7-1.7-4.3-2-6.3-.8-7.2 4.3-14.8 7.5-22.8 9.5-2.3.6-3.9 2.7-3.9 5v18.6c0 .4-.3.7-.7.7h-32.6c-.4 0-.7-.3-.7-.7v-18.6c0-2.4-1.6-4.5-3.9-5-8-2-15.7-5.2-22.8-9.5-2-1.2-4.6-.9-6.3.8 0 0-13.1 13.1-13.1 13.1l3.7 3.7c-2.8-1.4-24.8-23.9-27.6-26.7-.3-.3-.3-.7 0-.9l13.1-13.1c1.7-1.7 2-4.3.8-6.3-4.3-7.1-7.4-14.8-9.5-22.8-.6-2.3-2.7-3.9-5-3.9h-18.6c-.4 0-.7-.3-.7-.7zm205 208.5c0 .1 0 .1 0 0zm156.1 16c-1.5-6.7-5.3-12.5-10-16.6 6.1-4 10.1-11.3 10.1-19.5.6-4.4-2.4-8.7-6.9-8.7-7.3.5-23.8-1.7-30.1 2.7l-16.2-32c-5.6-11-16.2-17.8-27.8-17.8h-93.8c-13.3-.2-24.8 9.3-29.9 21.9h-94.3c-1.5 0-2.9.1-4.4.3-5.1-12.7-16.7-22.5-30.1-22.2h-93.8c-11.6 0-22.3 6.8-27.9 17.8l-16.2 32c-6.3-4.4-22.9-2.3-30.1-2.7-4.5-.1-7.4 4.3-6.8 8.7 0 8.2 4 15.5 10 19.5-4.5 3.9-8.1 9.4-9.8 15.7-3.6 9.6 2.8 31.8 3.9 41.7v43.9c0 7.8 6 14.2 13.3 14.2h23.2c6.5 0 12-5 13.2-11.6h68.9v42.1c0 8.5 6.5 15.4 14.4 15.4h26.3c7.2 0 13.2-5.7 14.3-13.1h169.3c1 7.4 7 13.1 14.3 13.1h26.3c8 0 14.5-6.9 14.5-15.4v-42.1h52.3c1.2 6.6 6.6 11.6 13.2 11.6h23.2c7.4 0 13.4-6.4 13.4-14.2v-44.2c1-9.3 7-31.3 4-40.5zm-26.6-34.4h16.2c-.7 6.1-5.3 10.9-10.8 10.9-.5 0-6 0-6.4-.1l-4.7-9.2c1.7-1 3.7-1.6 5.7-1.6zm-148.3-47h93.8c7.6 0 14.7 4.6 18.6 12.1 0 0 18.9 37.2 18.9 37.3.5 1.3 3.6 7.1 4.3 8.5l-.1-.1h-109-.1.1l-13.5-26.6c-5.9-11.6-18.2-19.9-31.3-19.8 4-7.1 10.9-11.4 18.3-11.4zm-124.2 21.9h106.4c8.9 0 17.2 5.4 21.7 14.1 6.7 13.2 20.2 39.8 26.9 52.9h-203.5c2.9-5.7 9-17.7 11.9-23.4 9.7-15.8 14.1-42.9 36.6-43.6zm132 93.2c-6.4 2.5-11.1 8.1-13.3 14.6.1-.4.2-.7.4-1.1-.5 1.3-.9 2.6-1.1 3.9.2-.9.4-1.9.8-2.8-.3.9-.6 1.9-.8 2.8v-.1h-129.5c-5-24.3-37.6-25.1-43.6-1-10-2.6-18.9-8.8-25.2-16.9 3.2-10 12.8-16.2 23.3-15.5-.1 0-.3 0-.4-.1 2.5 0 5 .1 7.5.1h139.8 71.4c11-1.1 22.1 4.6 25.4 15.6-7.5 7.5-14.7 14-25.3 16.8-2.4-12.8-17.1-21-29.4-16.3zm19.8 22.6c-.4 18.2-23.7 18.2-24.1.1.4-18.2 23.7-18.3 24.1-.1zm-173.2 0c-.4 18.2-23.6 18.2-24.1.1.4-18.2 23.7-18.3 24.1-.1zm-144.5-88c-.1-.3 19-37.3 19-37.6 3.8-7.5 10.9-12.1 18.6-12.1h93.8c8.7-.2 16.5 6.4 20 14.9-16.4 8.9-21.6 27.6-30 43h-125.5zm-16.8-2.7c2 0 3.9.6 5.7 1.7l-4.7 9.2c-.2.1-6 .1-6.4.1-5.5 0-10.1-4.8-10.8-10.9h16.2zm14.1 122.9h-23.2c-3.9-.1-2.8-6.6-3-9.2 3.2 3.7 7.5 6.5 12.2 7.5 3 .9 12.8.4 16.1.5-.5.8-1.3 1.2-2.1 1.2zm-9.5-11.5c-6.6 0-11.5-6.1-12.4-12.3 0 0-4.3-25.5-4.3-25.5 0-.3-.2-.6-.2-.9 0 0-4.1-24.6-4.1-24.6 6.3 5.2 13.6 9 21.6 10.8 4.3 22.7 34.5 23.3 39.7.8h49.8c-1 2-2 4.1-2.5 6.3h-6.9c-11.7 0-22 6.1-25.9 15l-6.3 14.7c-.7 1.6-.5 3.4.5 4.9.9 1.5 2.6 2.3 4.3 2.3h36.6l1.4 8.2h-91.3zm10.4-56.8c-.1-8.3 7.9-14.4 14.7-10.2 8.4 5.2 6.2 21.7-4.8 21.7-5.4.1-9.9-5.1-9.9-11.5zm30.2-2.6c.4 2.6.2 5.3-.4 7.8.5-2.5.6-5.2.4-7.8zm45.3 27.5c.1 2.7 1.7 10.6 2.1 13.3h-27l3.2-7.5c2.2-5.1 8.9-8.7 16.3-8.7h5.3c0 .9.1 1.9.1 2.9zm-45.7-30c.2.8.3 1.7.4 2.5-2.8-23.3-33-25.9-39.7-3.6-8.2-2.4-15.9-7.4-21.2-14.2 2.7-7.3 8.9-12.3 15.8-12.9h132.8c-2 5.1-10.2 16.2-13.2 20.7-6 .7-12.6 2.9-17 7.4h-57.9zm92.2 119.4h-26.4c-5.6-.2-3.8-9.3-4-13 7.7 11.4 22 10.8 34 10.3-.7 1.6-2.1 2.7-3.6 2.7zm228.2-5c0 2.7-1.9 5-4.1 5h-26.3c-1.6 0-2.9-1.1-3.6-2.7.3.6 6.8-.1 7.6-.1 9.8.8 20.8-1.4 26.5-10.2v8zm5.2-81.7c-1.6 10.1-3.4 20.2-5.1 30.3 0 0-4.9 28.8-4.9 28.8-1.4 8.4-7.6 14.5-14.7 14.5h-219.5c-7.2 0-13.4-6.1-14.8-14.5-1.7-9.9-5.9-34.5-7.5-44l-2.6-15.6c7.3 6.6 16.4 11.5 26.1 13.5 4.4 25.6 38.6 26.3 43.8.8h129.5l-.1-.1c-.4-1.7-.5-3.4-.5-5.2.5 28.9 38.8 33.3 44.4 4.4 9.6-2 18.5-6.9 26-13.4zm-1.4-32.7c-5.4-5.1-12.6-6.9-19.8-7.6 0 0-10.4-20.6-10.5-20.6l.1.1h116.3c6.9.6 13.1 5.7 15.8 12.9-5.7 6.1-12.7 12.3-21.1 14.2-.7-2.3-1.6-4.5-3-6.5v.1c-10-15.4-32.9-10.1-36.5 7.5.1-.1-41.3-.1-41.3-.1zm79-5.6c-.2-.5-.5-.9-.8-1.4.3.5.5 1 .8 1.4zm-7.8 10.7c-.2 15.2-19.8 15.2-20 0 .2-14.9 19.5-15.6 20 0zm27.1 64.5c0 2.1-1.3 3.8-3 3.8h-23.2c-.8 0-1.6-.5-2.1-1.2 3.6-.2 13.2.5 16.5-.6 4.6-1 8.8-3.8 11.8-7.4zm.3-46.4c0 .3-.2.6-.2.9 0 0-4.3 25.5-4.3 25.5-1.2 7.1-6.4 12.3-12.4 12.3h-74.6l1.4-8.2h20c3.6.1 6.3-3.9 4.8-7.2 0 0-6.3-14.7-6.3-14.7-2.6-6.2-8.4-11-15.8-13.4h.1c-.7-2.7-1.7-5.5-3-7.9h33.2c5.2 22.5 35.3 21.8 39.7-.8 7.8-2 15.3-5.6 21.5-10.8zm-88.4 20.1c.4-2.7 1.9-10.6 2-13.2 4.8 2.4 6.4 8.9 8.4 13.2zm39.6-56.4c-.2.1-.4.3-.6.5.2-.2.4-.4.6-.5.1 0 .1 0 0 0zm-429 16.3c.8.5 1.5.9 2.3 1.3-1.2-.6-2.3-1.2-3.3-2 .2.2.6.4 1 .7zm40.8-19.2c.1-.1.1 0 .2 0 0 0 0 0-.1.1-.1-.1-.1-.1-.1-.1zm252.4 87.6c-4.2-9.9-15.7-16.5-28.7-16.5h-36.8c-13 0-24.5 6.6-28.7 16.5l-7.1 16.8c-1.5 3.3 1.2 7.3 4.8 7.2h98.9c3.6.1 6.3-3.9 4.8-7.2-.1 0-7.2-16.8-7.2-16.8zm-88.7 13.6 4-9.5c2.6-6.1 10.5-10.3 19.2-10.3h36.8c8.7 0 16.6 4.2 19.1 10.3l4 9.5z"/></svg>