<?xml version="1.0" encoding="iso-8859-1"?>
<!-- Generator: Adobe Illustrator 19.0.0, SVG Export Plug-In . SVG Version: 6.00 Build 0)  -->
<svg version="1.1" id="Capa_1" xmlns="http://www.w3.org/2000/svg" xmlns:xlink="http://www.w3.org/1999/xlink" x="0px" y="0px"
	 viewBox="0 0 512 512" style="enable-background:new 0 0 512 512;" xml:space="preserve">
<path style="fill:#00C7CE;" d="M361,256c0,40.8-23.699,77.699-60,94.799v82.2h-90v-82.2c-36.301-17.1-60-54-60-94.799
	c0-44.401,28.2-84.3,69.901-99L241,149.799V241h30v-91.201L291.099,157C332.8,171.7,361,211.599,361,256z"/>
<path style="fill:#00969B;" d="M361,256c0,40.8-23.699,77.699-60,94.799v82.2h-45V241h15v-91.201L291.099,157
	C332.8,171.7,361,211.599,361,256z"/>
<path style="fill:#7F6D67;" d="M473.2,197.8c-5.099-18.9-12.599-37.2-22.5-54.3l13.5-39.901l-55.8-55.8L368.5,61.3
	c-17.1-9.9-35.4-17.4-54.3-22.5L295.3,0h-78.6l-18.9,38.8c-18.9,5.1-37.2,12.6-54.3,22.5l-39.901-13.5l-55.8,55.8L61.3,143.5
	c-9.9,17.1-17.4,35.4-22.5,54.3L0,216.7v78.6l38.8,18.9c5.099,18.9,12.599,37.2,22.5,54.3l-13.5,39.899l55.8,55.801l39.901-13.5
	c17.1,9.901,35.4,17.401,54.3,22.5l18.9,38.8h78.6l18.9-38.8c18.9-5.099,37.2-12.599,54.3-22.5l39.901,13.5l55.8-55.801L450.7,368.5
	c9.901-17.1,17.401-35.4,22.5-54.3l38.8-18.9v-78.6L473.2,197.8z M256,421c-90.901,0-165-74.101-165-165
	c0-90.901,74.099-165,165-165s165,74.099,165,165C421,346.899,346.901,421,256,421z"/>
<path style="fill:#504541;" d="M512,216.7v78.6l-38.8,18.9c-5.099,18.9-12.599,37.2-22.5,54.3l13.5,39.899L408.4,464.2l-39.9-13.5
	c-17.1,9.901-35.4,17.401-54.3,22.5L295.3,512H256v-91c90.901,0,165-74.101,165-165c0-90.901-74.099-165-165-165V0h39.3l18.9,38.8
	c18.9,5.099,37.2,12.599,54.3,22.5l39.901-13.5l55.8,55.8L450.7,143.5c9.901,17.1,17.401,35.4,22.5,54.3L512,216.7z"/>
<g>
</g>
<g>
</g>
<g>
</g>
<g>
</g>
<g>
</g>
<g>
</g>
<g>
</g>
<g>
</g>
<g>
</g>
<g>
</g>
<g>
</g>
<g>
</g>
<g>
</g>
<g>
</g>
<g>
</g>
</svg>
