<svg clip-rule="evenodd" fill-rule="evenodd" stroke-linejoin="round" stroke-miterlimit="2" viewBox="0 0 510 510" xmlns="http://www.w3.org/2000/svg"><g id="Artboard111"><path d="m479.958 220.979h15.042c4.418 0 8 3.582 8 8v48.439c0 3.31-2.038 6.278-5.127 7.466 0 0-35.874 13.807-35.873 13.807-4.963 19.148-12.606 37.484-22.615 54.551l15.583 35.182c1.34 3.023.681 6.558-1.657 8.896l-45.908 45.908c-2.338 2.338-5.873 2.997-8.896 1.657 0 0-35.165-15.576-35.165-15.576-17.025 10.054-35.411 17.652-54.568 22.608l-13.807 35.873c-1.188 3.089-4.156 5.127-7.466 5.127h-64.937c-3.309 0-6.277-2.038-7.466-5.127 0 0-13.806-35.87-13.805-35.87-19.205-4.963-37.548-12.608-54.618-22.618l-35.182 15.583c-3.023 1.34-6.558.681-8.896-1.657l-45.908-45.908c-2.341-2.341-2.998-5.882-1.653-8.907 0 0 15.634-35.161 15.634-35.16-10.052-17.022-17.651-35.404-22.658-54.557l-35.885-13.812c-3.089-1.188-5.127-4.156-5.127-7.466v-48.439c0-4.418 3.582-8 8-8h16.324c9.508-32.87 34.762-59.055 67.058-69.84-14.276-10.296-23.597-27.072-23.597-45.952 0-31.175 25.414-56.614 56.589-56.614 31.203 0 56.614 25.441 56.614 56.614 0 18.881-9.321 35.658-23.605 45.954 2.895.967 5.734 2.057 8.509 3.265 12.471-15.967 29.494-28.205 49.116-34.757-14.276-10.297-23.596-27.072-23.596-45.952 0-31.175 25.413-56.614 56.588-56.614 31.203 0 56.614 25.441 56.614 56.614 0 18.88-9.32 35.657-23.604 45.953 19.798 6.61 36.945 19.004 49.44 35.174 3.078-1.376 6.234-2.607 9.46-3.685-14.277-10.296-23.598-27.072-23.598-45.952 0-31.175 25.414-56.614 56.589-56.614 31.203 0 56.614 25.441 56.614 56.614 0 18.88-9.321 35.657-23.604 45.953 32.304 10.787 57.553 36.972 67.047 69.839zm-431.849 0h98.891v-32.229c0-2.206.911-4.313 2.517-5.825s3.765-2.294 5.966-2.16c.793.048 1.583.087 2.372.118 1.724-4.453 3.745-8.759 6.04-12.892-10.062-3.995-21.035-6.19-32.521-6.19-38.524 0-71.277 24.726-83.265 59.178zm98.891 16h-22.869c3.003 21.299 11.078 40.967 22.964 57.741-.063-1.635-.095-3.277-.095-4.925zm-39.01 0h-84.99v34.946l34.634 13.33c2.455.944 4.288 3.036 4.904 5.593 4.902 20.363 12.944 39.847 23.942 57.633 1.391 2.249 1.58 5.041.506 7.457l-15.097 33.954 38.141 38.142 33.959-15.042c2.404-1.065 5.177-.88 7.419.493 17.85 10.936 37.271 19.048 57.698 23.887 2.57.609 4.673 2.447 5.622 4.911l13.329 34.634h53.951l13.33-34.634c.948-2.462 3.049-4.299 5.616-4.91 20.355-4.837 39.831-12.877 57.61-23.871 2.246-1.389 5.033-1.58 7.447-.51l33.959 15.042 38.147-38.147-15.042-33.959c-1.065-2.404-.88-5.177.493-7.419 10.937-17.851 19.049-37.273 23.889-57.638.61-2.567 2.447-4.669 4.909-5.616 0 0 34.634-13.33 34.634-13.33v-34.946h-84.991c-4.305 34.271-20.312 64.904-43.895 87.769-13.3 46.602-52.477 83.213-101.733 91.79-.908.158-1.837.158-2.745 0-49.251-8.574-88.418-45.159-101.734-91.734-23.597-22.87-39.608-53.526-43.912-87.825zm277.877 0h-22.867v52.816c0 1.634-.031 3.263-.093 4.885 11.881-16.766 19.956-36.419 22.96-57.701zm-22.867-16h100.175c-11.973-34.452-44.73-59.178-83.274-59.178-11.878 0-23.207 2.349-33.548 6.611 2.197 4.004 4.139 8.168 5.803 12.471.785-.031 1.572-.071 2.36-.118 2.202-.134 4.361.648 5.967 2.16s2.517 3.619 2.517 5.825zm-231.626-75.178c22.385 0 40.614-18.25 40.614-40.614 0-22.363-18.229-40.614-40.614-40.614-22.362 0-40.589 18.252-40.589 40.614s18.227 40.614 40.589 40.614zm123.626-15.49c-34.978 0-65.198 20.385-79.438 49.925 26.492-2.918 51.222-14.073 76.127-25.431 2.108-.962 4.531-.962 6.639 0 24.907 11.359 49.639 22.515 76.124 25.432-14.23-29.541-44.455-49.926-79.452-49.926zm0-16c22.385 0 40.614-18.25 40.614-40.614 0-22.363-18.229-40.614-40.614-40.614-22.362 0-40.588 18.252-40.588 40.614s18.226 40.614 40.588 40.614zm124.901 31.49c22.385 0 40.614-18.25 40.614-40.614 0-22.363-18.229-40.614-40.614-40.614-22.363 0-40.589 18.252-40.589 40.614s18.226 40.614 40.589 40.614zm-124.893 25.072c-29.799 13.522-59.59 25.892-92.008 26.092v92.83c0 54.182 39.222 100.864 92.009 110.732 52.77-9.868 91.991-56.551 91.991-110.732v-92.83c-32.403-.201-62.193-12.57-91.992-26.092zm-66.217 125.542-.018-.017c-9.037-9.002-9.034-23.605.009-32.603 8.99-8.979 23.528-8.993 32.568-.008.005.006.011.012.017.017l17.339 17.34 49.962-50.442.01-.01c8.949-9.003 23.519-9.054 32.522-.105 9.053 8.998 9.05 23.559.117 32.547-28.73 29.014-37.382 38.057-66.288 66.928-9.004 9.039-23.613 9.033-32.592-.001zm11.296-11.331 33.663 33.663c.006.006.012.012.017.017 2.741 2.757 7.192 2.757 9.932 0 .007-.007.014-.013.021-.02 28.881-28.846 37.524-37.88 66.227-66.868l.011-.011c2.728-2.745 2.724-7.186-.037-9.93-2.739-2.723-7.17-2.703-9.893.035l-55.611 56.144c-1.498 1.512-3.536 2.365-5.665 2.37-2.128.006-4.171-.838-5.676-2.343 0 0-23.01-23.01-23.01-23.01-2.772-2.75-7.226-2.766-9.979-.013-.006.006-.011.011-.017.017-2.757 2.74-2.757 7.192 0 9.932z"/></g></svg>