<svg id="Layer" height="512" viewBox="0 0 24 24" width="512" xmlns="http://www.w3.org/2000/svg"><path id="user-plus-bottom" d="m11.009 10.75a4.25 4.25 0 1 0 -4.25-4.25 4.255 4.255 0 0 0 4.25 4.25zm0-7a2.75 2.75 0 1 1 -2.75 2.75 2.753 2.753 0 0 1 2.75-2.75zm-6.259 14.27c0 1.563.673 2.23 2.25 2.23h7a.75.75 0 0 1 0 1.5h-7c-2.418 0-3.75-1.325-3.75-3.73 0-2.662 1.506-5.77 5.75-5.77h4a5.807 5.807 0 0 1 3.729 1.165.75.75 0 1 1 -.938 1.17 4.359 4.359 0 0 0 -2.791-.835h-4a3.959 3.959 0 0 0 -4.25 4.27zm17 .98a.75.75 0 0 1 -.75.75h-1.25v1.25a.75.75 0 0 1 -1.5 0v-1.25h-1.25a.75.75 0 0 1 0-1.5h1.25v-1.25a.75.75 0 0 1 1.5 0v1.25h1.25a.75.75 0 0 1 .75.75z" fill="rgb(0,0,0)"/></svg>